<?xml version="1.0" encoding="UTF-8"?>
<!-- Generator: Adobe Illustrator 16.0.0, SVG Export Plug-In . SVG Version: 6.00 Build 0)  -->
<!DOCTYPE svg PUBLIC "-//W3C//DTD SVG 1.1//EN" "http://www.w3.org/Graphics/SVG/1.1/DTD/svg11.dtd">
<svg version="1.1" id="Calque_1" xmlns:svg="http://www.w3.org/2000/svg" xmlns="http://www.w3.org/2000/svg" xmlns:xlink="http://www.w3.org/1999/xlink" x="0px" y="0px" width="600px" height="554.324px" viewBox="0 0 600 554.324" enable-background="new 0 0 600 554.324" xml:space="preserve">
<g id="red">
	<path id="cv_element" fill="#FF0101" d="M228.35,260.638c-66.626-38.467-89.455-123.662-50.988-190.289   C215.829,3.723,301.023-19.105,367.65,19.362s89.454,123.662,50.987,190.288c-12.226,21.177-29.811,38.762-50.987,50.988   l-41.941-72.646c26.506-15.303,35.588-49.196,20.284-75.702c-15.303-26.506-49.196-35.587-75.702-20.284   c-26.506,15.304-35.587,49.196-20.284,75.702c4.864,8.425,11.859,15.421,20.284,20.284L228.35,260.638z"/>
</g>
<g id="blue" transform="rotate(180,457,415)">
	<path id="cv_element_1_" fill="#0101FF" d="M526.65,294.362c66.627,38.467,89.454,123.662,50.987,190.288   c-38.467,66.627-123.661,89.455-190.288,50.988s-89.455-123.662-50.987-190.289c12.226-21.176,29.811-38.761,50.987-50.987   l41.941,72.645c-26.506,15.304-35.588,49.196-20.284,75.702c15.303,26.507,49.196,35.588,75.702,20.285   c26.506-15.304,35.588-49.197,20.284-75.703c-4.863-8.425-11.859-15.42-20.284-20.284L526.65,294.362z"/>
</g>
<g id="green" transform="rotate(240,142,415)">
	<path id="cv_element_2_" fill="#01FF01" d="M281.301,415c0,76.935-62.367,139.301-139.301,139.301S2.699,491.934,2.699,415   c0-76.934,62.367-139.301,139.301-139.301c24.452,0,48.474,6.437,69.65,18.663l-41.941,72.645   c-26.506-15.303-60.399-6.222-75.702,20.284s-6.222,60.399,20.284,75.703c26.506,15.303,60.399,6.222,75.702-20.285   c4.864-8.424,7.425-17.98,7.425-27.709H281.301z"/>
</g>
<g id="opencv_text">
	<path id="O" fill="#050505" d="M42.48,587.7c11.79-1.06,23.71-1.05,35.44,0.63c7.23,1.28,14.9,3.15,20.33,8.42   c5.69,6.351,7.09,15.171,8.34,23.301c2.05,16.87,1.81,33.979,0,50.859c-1.21,8.24-2.4,17.141-7.8,23.84   c-5.89,5.98-14.59,7.681-22.57,8.94c-11.78,1.47-23.73,1.81-35.56,0.63c-8.01-0.82-16.37-2.229-23.19-6.8   c-4.41-2.8-6.78-7.74-8.39-12.53C5.85,675.01,5.44,664.41,5,654.01c-0.05-13.74,0.21-27.62,2.89-41.141   c1.45-6.31,3.21-13.25,8.54-17.46C23.94,589.961,33.49,588.64,42.48,587.7z M44.43,606.53c9.99-0.8,20.19-1.04,30.07,0.9   c3.83,0.77,8.35,2.63,9.07,6.99c3,12.27,2.3,25.05,2.42,37.59c-0.37,8.92-0.16,18.14-3.15,26.68c-2.61,5.61-9.72,6.07-15.08,6.89   c-10.75,0.61-21.91,1.15-32.34-2.04c-4.81-1.27-6.33-6.43-7.07-10.76c-2-12.83-1.35-25.88-1.1-38.81   c0.53-7.25,0.44-14.771,3.05-21.66C33.29,607.69,39.47,607.28,44.43,606.53z"/>
	<path id="p" fill="#050505" d="M149.77,626.78c7.16-4.55,16.05-5.29,24.31-4.54c7.71,0.66,16.27,3.28,20.4,10.38   c4.93,8.91,5.21,19.44,5.55,29.38c-0.22,10.221-0.41,20.891-4.63,30.391c-2.41,5.77-7.95,9.55-13.88,11.04   c-9.08,2.229-19.06,2.47-27.81-1.15c-4.73-1.85-8-5.87-10.71-9.99c0,15.57,0,31.141,0,46.71h-20   c0.01-38.659-0.02-77.329,0.01-115.989c6.47-0.03,12.94-0.03,19.4,0c-0.22,3.979-0.44,7.95-0.55,11.939   C144.26,632.02,146.49,628.801,149.77,626.78z M156.28,637.22c5.6-0.431,11.52-0.55,16.76,1.76c3.32,1.43,5.07,4.94,5.66,8.34   c1.74,8.771,1.52,17.83,0.9,26.71c-0.62,5.36-1.48,12.3-7.38,14.38c-6.82,2.23-14.6,2.37-21.34-0.239   c-6.27-2.641-7-10.23-7.62-16.12c-0.37-9.04-0.82-18.34,1.73-27.12C146.34,639.95,151.52,637.591,156.28,637.22z"/>
	<path id="e" fill="#050505" d="M223.96,626.93c9.83-5.05,21.34-5.23,32.13-4.72c8.98,0.75,19.88,2.25,24.83,10.84   c5.58,10.37,4.67,22.569,5.45,33.949c-18.24,0-36.48,0-54.71,0c0.64,5.87-0.12,12.2,2.84,17.58c2.53,4.25,7.9,5.12,12.44,5.37   c5.61,0.04,11.65,0.5,16.82-2.109c2.96-2.32,2.98-6.44,3.36-9.841c6.4-0.01,12.8-0.01,19.2,0c-0.24,6.681-1.1,14.16-6.46,18.86   c-8.05,7.22-19.57,7.97-29.87,8.17c-9.09-0.27-18.69-0.729-26.83-5.21c-6.59-3.89-8.69-11.88-9.85-18.92   c-1.47-10.46-1.84-21.12-0.59-31.62C213.74,640.99,215.97,631.24,223.96,626.93z M235.65,639.66c5.46-3.319,12.22-2.649,18.35-2.56   c3.8,0.41,8.43,0.63,10.9,3.99c2.52,4.149,2.07,9.229,2.09,13.89c-11.77,0.02-23.53,0.05-35.29-0.01   C231.88,649.79,231.47,643.47,235.65,639.66z"/>
	<path id="n" fill="#050505" d="M328.96,626.881c6.92-4.801,15.86-5.471,24-4.53c6.93,0.729,14.271,3.37,18.36,9.35   c3.63,4.96,4.64,11.28,4.689,17.29c-0.029,18.34,0.01,36.67-0.01,55.01c-6.34,0.011-12.67,0.011-18.99,0   c-0.029-17.35,0.021-34.689-0.029-52.029c-0.19-3.79-0.04-8.17-2.891-11.09c-3.04-3.29-7.81-3.931-12.06-3.9   c-5.141-0.03-10.7,0.85-14.66,4.4c-3.87,3.3-5.34,8.619-5.36,13.54c-0.029,16.359,0.01,32.72-0.02,49.069   c-6.33,0.021-12.66,0.021-18.98,0.01c-0.01-27-0.01-54,0-81c6.221-0.02,12.45-0.01,18.67,0c-0.029,4.74-0.5,9.45-0.64,14.19   C323.08,633.36,325.22,629.32,328.96,626.881z"/>
	<path id="C" fill="#050505" d="M410.39,591.4c10.48-3.52,21.65-4.02,32.61-4.41c10.62,0.05,21.72,0.15,31.64,4.431   c5.04,2.1,8.53,6.699,10.23,11.779c2.77,7.59,2.85,15.811,2.91,23.8c-7.311,0-14.62,0.021-21.92-0.01   c-0.12-5.62,0.31-11.92-3.17-16.7c-3.521-3.6-9.021-3.59-13.69-4.14c-9.5-0.18-19.39-0.79-28.49,2.49   c-3.279,1.04-4.979,4.32-5.64,7.479C413,624.6,412.99,633.35,413,642c0.11,11.561-0.07,23.29,2.4,34.66   c0.649,4.16,4.479,6.721,8.319,7.641c8.88,2.21,18.15,1.89,27.221,1.35c4.729-0.62,10.489-0.93,13.46-5.27   c3.17-5.181,2.64-11.551,2.47-17.37c7.38-0.03,14.75-0.021,22.13,0c-0.09,9.189-0.25,18.68-3.59,27.38   c-1.72,4.55-5.271,8.41-9.87,10.149c-9.03,3.62-18.93,3.851-28.51,4.431c-11.11,0.189-22.36-0.08-33.221-2.67   c-6.369-1.66-13.329-4.58-16.279-10.91c-3.771-8.37-4.46-17.68-5.431-26.69c-0.81-11.899-1.33-23.819-1.04-35.739   c0.57-9.65,1.45-19.82,6.66-28.23C400.49,596.051,405.35,593.12,410.39,591.4z"/>
	<path id="V" fill="#050505" d="M492.6,588.03c7.62,0.01,15.24-0.21,22.851,0.11c7.41,23.51,15.55,46.78,23.029,70.26   c2.91,9.021,4.971,18.3,7.98,27.29c3.37-9.7,5.53-19.78,8.83-29.5c7.31-22.71,14.82-45.35,22.12-68.06   c7.52-0.32,15.06-0.04,22.59-0.141v2.49c-12.38,37.73-24.47,75.56-36.6,113.38c-11.32,0.23-22.66,0.26-33.98-0.02   C517.36,665.171,504.72,626.68,492.6,588.03z"/>
</g>
</svg>